<svg width="19" height="16" viewBox="0 0 19 16" fill="none" xmlns="http://www.w3.org/2000/svg">
<g opacity="0.5">
<path d="M12.8846 1H6.11538C4.94769 1 4 1.76364 4 2.70455V14.2955C4 15.2364 4.94769 16 6.11538 16H12.8846C14.0523 16 15 15.2364 15 14.2955V2.70455C15 1.76364 14.0523 1 12.8846 1ZM9.5 15.3182C8.79769 15.3182 8.23077 14.8614 8.23077 14.2955C8.23077 13.7295 8.79769 13.2727 9.5 13.2727C10.2023 13.2727 10.7692 13.7295 10.7692 14.2955C10.7692 14.8614 10.2023 15.3182 9.5 15.3182ZM13.3077 12.5909H5.69231V3.04545H13.3077V12.5909Z" fill="black"/>
</g>
</svg>
