<svg width="18" height="10" viewBox="0 0 18 10" fill="none" xmlns="http://www.w3.org/2000/svg">
<path d="M9.52881 3.33333C8.9218 1.39167 7.27842 0 5.34634 0C2.89608 0 0.904785 2.24167 0.904785 5C0.904785 7.75833 2.89608 10 5.34634 10C7.27842 10 8.9218 8.60833 9.52881 6.66667H12.7489V10H15.71V6.66667H17.1905V3.33333H9.52881ZM5.34634 6.66667C4.53206 6.66667 3.86582 5.91667 3.86582 5C3.86582 4.08333 4.53206 3.33333 5.34634 3.33333C6.16063 3.33333 6.82686 4.08333 6.82686 5C6.82686 5.91667 6.16063 6.66667 5.34634 6.66667Z" fill="black" fill-opacity="0.5"/>
</svg>
