<svg width="16" height="15" viewBox="0 0 16 15" fill="none" xmlns="http://www.w3.org/2000/svg">
<path d="M7.91667 0C3.54667 0 0 3.36 0 7.5C0 11.64 3.54667 15 7.91667 15C12.2867 15 15.8333 11.64 15.8333 7.5C15.8333 3.36 12.2867 0 7.91667 0ZM7.91667 2.25C9.23083 2.25 10.2917 3.255 10.2917 4.5C10.2917 5.745 9.23083 6.75 7.91667 6.75C6.6025 6.75 5.54167 5.745 5.54167 4.5C5.54167 3.255 6.6025 2.25 7.91667 2.25ZM7.91667 12.9C5.9375 12.9 4.18792 11.94 3.16667 10.485C3.19042 8.9925 6.33333 8.175 7.91667 8.175C9.49208 8.175 12.6429 8.9925 12.6667 10.485C11.6454 11.94 9.89583 12.9 7.91667 12.9Z" fill="black" fill-opacity="0.5"/>
</svg>
